<?xml version="1.0" standalone="no"?>
<!DOCTYPE svg PUBLIC "-//W3C//DTD SVG 20010904//EN"
 "http://www.w3.org/TR/2001/REC-SVG-20010904/DTD/svg10.dtd">
<svg version="1.0" xmlns="http://www.w3.org/2000/svg"
 width="700.000000pt" height="700.000000pt" viewBox="0 0 700.000000 700.000000"
 preserveAspectRatio="xMidYMid meet">
<metadata>
Created by potrace 1.14, written by Peter Selinger 2001-2017
</metadata>
<g transform="translate(0.000000,700.000000) scale(0.100000,-0.100000)"
fill="#000000" stroke="none">
<path d="M3808 5965 c-1 -2 -34 -6 -73 -9 -63 -6 -97 -11 -160 -22 -11 -2 -36
-7 -55 -10 -239 -40 -503 -116 -825 -239 -139 -53 -549 -218 -615 -247 -19 -9
-75 -32 -125 -53 -325 -135 -571 -303 -691 -471 -119 -166 -155 -329 -148
-659 4 -189 6 -231 18 -372 21 -246 24 -442 11 -738 -15 -344 -11 -670 10
-745 2 -8 7 -31 10 -50 19 -112 78 -256 153 -369 41 -62 189 -215 267 -277
134 -107 293 -204 507 -311 92 -45 170 -83 173 -83 3 0 27 -10 53 -21 122 -55
179 -76 337 -126 114 -36 254 -69 328 -78 23 -3 55 -8 72 -11 42 -7 257 -8
280 -1 11 3 45 9 75 12 30 4 95 20 145 37 90 30 276 118 306 144 8 8 19 14 23
14 14 0 227 151 381 270 262 203 315 242 565 427 321 237 380 284 570 453 368
327 609 676 669 970 6 30 14 66 17 80 7 34 7 188 -1 242 -21 145 -80 326 -168
511 -54 113 -265 489 -360 641 -27 44 -60 98 -73 121 -22 40 -80 131 -146 228
-75 111 -231 298 -309 371 -220 204 -455 313 -784 361 -50 7 -430 16 -437 10z"/>
</g>
</svg>
